<svg xmlns="http://www.w3.org/2000/svg" viewBox="0 0 882.34 210.23"><defs><style>.p{fill:#5dc988;}</style></defs><title>spiritous-logo</title><path class="p" d="M166.81,84.94A87.16,87.16,0,0,0,54.32,3.76,130.54,130.54,0,0,1,53,39.23h0a129,129,0,0,1-27,59h0A130,130,0,0,1,0,122.36,87.46,87.46,0,0,0,18.3,149,162.55,162.55,0,0,0,80,64.69a160.9,160.9,0,0,0,6.48-32,55.42,55.42,0,0,1,47.85,48.94A54.84,54.84,0,0,1,56.5,136.84a179.08,179.08,0,0,1-25.27,22.7,87.11,87.11,0,0,0,135.58-74.6Z"/><path d="M249.93,99.2c-20.78-9.58-39.11-19.15-39.11-43.4,0-16.7,13.85-37.49,41.15-37.49,26.89,0,40.54,20.79,40.54,20.79L279.68,49.49S269.7,34.61,252,34.61c-15.69,0-24,11-24,21.19,0,14.47,12.22,20.17,31.78,29.14,21.8,10,35.45,19.15,35.45,42.17,0,23.22-19.15,38.71-44.21,38.71-33.82,0-45.43-29.75-45.43-29.75l14.26-8.55s8.56,22,31.17,22c13.65,0,26.69-7.74,26.69-22.41C277.64,112.24,265.82,106.53,249.93,99.2Z"/><path d="M324.3,69.25V82.9s9.37-16.1,31.78-16.1c25.47,0,45.64,21.8,45.64,49.51s-20.17,49.51-45.64,49.51c-17.32,0-27.1-9.78-30.35-14.06v58.47H308.61v-141Zm1.43,64.58s9,16.1,27.7,16.1c19.15,0,31.17-15.08,31.17-33.62s-12-33.61-31.17-33.61c-18.74,0-27.7,16.09-27.7,16.09Z"/><path d="M422.71,27.48A11.62,11.62,0,1,1,411.09,39.1,11.75,11.75,0,0,1,422.71,27.48Zm-8.56,41.77h17.11v94.12H414.15Z"/><path d="M506,69.25l-6.31,15.48s-3.67-2-10.8-2c-14.87,0-21.6,15.89-21.6,15.89v64.78H450.21V69.25H466.1V83.71s8.35-16.91,26.28-16.91A39.29,39.29,0,0,1,506,69.25Z"/><path d="M520.91,27.48A11.62,11.62,0,1,1,509.29,39.1,11.75,11.75,0,0,1,520.91,27.48Zm-8.56,41.77h17.11v94.12H512.35Z"/><path d="M540.26,69.25H558.6V40.52h17.11V69.25h29.34V84.73H575.71v50.73c0,9.17,4.48,14.47,13.65,14.47,5.3,0,10.8-3.87,10.8-3.87l6.32,14.05c-8.15,4.49-14.06,5.71-19.56,5.71-13.45,0-28.32-8.76-28.32-29.54V84.73H540.26Z"/><path d="M705.29,116.31c0,27.71-20.78,49.51-48.49,49.51s-48.49-21.8-48.49-49.51S629.09,66.8,656.8,66.8,705.29,88.6,705.29,116.31Zm-17.12,0c0-18.54-12.42-33.61-31.37-33.61s-31.38,15.07-31.38,33.61,12.43,33.62,31.38,33.62S688.17,134.85,688.17,116.31Z"/><path d="M714.66,129.76V69.25h17.12v57.66c0,16.09,10,23,22.61,23,15.89,0,23.43-15.49,23.43-15.49V69.25h17.11v94.12H779V148.91s-8.56,16.91-28.93,16.91C731.37,165.82,714.66,153,714.66,129.76Z"/><path d="M816.53,135.05s10,15.28,28.52,15.28c9.58,0,20.38-4.07,20.38-11.61,0-8.15-6.93-12.22-21.4-15.07-20.17-4.08-34.43-12-34.43-29.75,0-13.65,13.65-27.1,34.64-27.1a48.92,48.92,0,0,1,34.84,14.26L867.87,92.68s-9.37-10.39-23.63-10.39c-12,0-17.93,5.91-17.93,12,0,7.13,7.33,11,22.82,14.26,17.93,3.87,33.21,10.59,33.21,29.74,0,18.14-19.15,27.51-37.29,27.51-26.48,0-40.34-19.76-40.34-19.76Z"/></svg>
