<svg xmlns="http://www.w3.org/2000/svg" viewBox="0 0 753.2 469.64"><defs><style>.cls-1{fill:#0e75a4;}.cls-2{fill:#191d1f;}</style></defs><title>Layer 1 (2)</title><g id="Layer_2" data-name="Layer 2"><g id="Layer_1-2" data-name="Layer 1"><path class="cls-1" d="M255.13,288c72,0,144-36,216-36s144,36,216,36l-216-216-36,36L327.13,0,72.78,254.35C133.56,262.34,194.34,288,255.13,288Z"/><path class="cls-1" d="M704.45,305.32c-5.78.43-11.55.68-17.32.68-72,0-144-36-216-36s-144,36-216,36c-66.23,0-132.46-30.44-198.68-35.32L39.13,288c72,0,144,36,216,36s144-36,216-36,144,36,216,36a257.29,257.29,0,0,0,33.65-2.35Z"/><path class="cls-1" d="M736.36,337.23A284,284,0,0,1,687.13,342c-72,0-144-36-216-36s-144,36-216,36-144-36-216-36c-6.26,0-12.53.29-18.79.78L0,327.13A265.87,265.87,0,0,1,39.13,324c72,0,144,36,216,36s144-36,216-36,144,36,216,36c21.44,0,42.87-3.2,64.31-7.68Z"/><path class="cls-2" d="M39.49,395A36.45,36.45,0,0,1,76,431.79c0,21.25-16.4,37.85-36.51,37.85S3,453,3,431.79A36.45,36.45,0,0,1,39.49,395Zm0,70.44c17.64,0,31.87-14.64,31.87-33.62,0-18.46-14.23-32.59-31.87-32.59S7.62,413.33,7.62,431.79C7.62,450.77,21.86,465.41,39.49,465.41Z"/><path class="cls-2" d="M86.52,396.21h4.34v60.44c0,7.22,3.71,8,6.08,8a12.66,12.66,0,0,0,1.55-.1v4a9.68,9.68,0,0,1-1.86.21c-3,0-10.11-1.14-10.11-10.83Z"/><path class="cls-2" d="M126.33,415.6c13,0,17.85,11.65,17.85,11.65h.2A21.65,21.65,0,0,1,144,423V396.21h4.33v72.2H144v-6.5a16.85,16.85,0,0,1,.41-3.92h-.2s-4.44,11.65-18.67,11.65c-13.82,0-22.28-11-22.28-27C103.23,426.22,112.82,415.6,126.33,415.6Zm-.61,49.81c9.48,0,18.35-6.7,18.35-22.89,0-11.45-5.87-22.69-17.94-22.69-10.11,0-18.36,8.35-18.36,22.79C107.77,456.54,115.2,465.41,125.72,465.41Z"/><path class="cls-2" d="M188.84,396.21H210c6.7,0,10.11.72,13,2.17,6,3,10,9.07,10,17.32,0,10.32-6,18.05-14.44,19.91v.2a15.07,15.07,0,0,1,1.65,2.58l16.19,30h-5.26l-17.12-32H193.27v32h-4.43Zm24,36.1c9.48,0,15.47-6.81,15.47-16.61,0-6.39-3.2-11.55-8.46-13.92-2.06-.93-4.33-1.44-10.11-1.44h-16.5v32Z"/><path class="cls-2" d="M246.28,396.21h5.16v7.53h-5.16Zm.42,20.63H251v51.57H246.7Z"/><path class="cls-2" d="M257.83,416.84h4.64l15.89,40.43c.92,2.47,1.75,5.57,1.75,5.57h.21s.82-3.1,1.75-5.57L298,416.84h4.54l-20.21,51.57h-4.13Z"/><path class="cls-2" d="M330.75,415.6c14,0,21,11,21,23.52a27.66,27.66,0,0,1-.21,2.78H310.23c0,15,10.1,23.51,22.07,23.51a23.34,23.34,0,0,0,16-6.49l2.38,3.61a28.12,28.12,0,0,1-18.36,7.11c-14.54,0-26.61-10.52-26.61-26.92C305.69,425.29,317.55,415.6,330.75,415.6Zm16.5,22.28c-.51-12.59-8-18.26-16.6-18.26-9.49,0-18.26,6.19-20.11,18.26Z"/><path class="cls-2" d="M362.21,416.84h4.33v9.8a21.65,21.65,0,0,1-.41,4.22h.2c2.58-7.94,8.36-14.43,16.51-14.43a16.24,16.24,0,0,1,3,.31v4.33a16.6,16.6,0,0,0-2.38-.21c-8,0-13.09,6.81-15.36,14.44a36.45,36.45,0,0,0-1.55,10.83v22.28h-4.33Z"/><path class="cls-2" d="M450.39,395c17.12,0,25.78,9.08,25.78,9.08l-2.68,3.3a35.23,35.23,0,0,0-23-8.15c-17.74,0-31.25,13.92-31.25,32.59s13.41,33.62,31.56,33.62a34.94,34.94,0,0,0,24.44-9.79l2.79,3.09s-9.7,10.93-27.23,10.93c-21,0-36.2-16.91-36.2-37.85S430.07,395,450.39,395Z"/><path class="cls-2" d="M489,416.84h4.34v9.8a21.16,21.16,0,0,1-.42,4.22h.21c2.58-7.94,8.35-14.43,16.5-14.43a16.1,16.1,0,0,1,3,.31v4.33a16.56,16.56,0,0,0-2.37-.21c-8,0-13.1,6.81-15.37,14.44a36.76,36.76,0,0,0-1.54,10.83v22.28H489Z"/><path class="cls-2" d="M539.91,415.6c14,0,21,11,21,23.52,0,1.13-.2,2.78-.2,2.78H519.39c0,15,10.11,23.51,22.07,23.51a23.38,23.38,0,0,0,16-6.49l2.37,3.61a28.12,28.12,0,0,1-18.36,7.11c-14.54,0-26.61-10.52-26.61-26.92C514.85,425.29,526.71,415.6,539.91,415.6Zm16.5,22.28c-.51-12.59-8-18.26-16.6-18.26-9.49,0-18.26,6.19-20.11,18.26Z"/><path class="cls-2" d="M599.11,437h3.41V435.2c0-11.45-5.88-15.37-14.13-15.37a24.27,24.27,0,0,0-14.75,4.95l-2.48-3.51s6.19-5.67,17.43-5.67c11.86,0,18.26,6.6,18.26,19.49v33.32h-4.33V461.6a23.62,23.62,0,0,1,.41-4.64h-.21c.11,0-4.64,12.68-18,12.68-8.36,0-17.54-4.64-17.54-14.95C567.14,437.16,589.93,437,599.11,437Zm-14.23,28.67c11.24,0,17.64-11.65,17.64-21.86V441h-3.3c-8.77,0-27.54,0-27.54,13.41C571.68,459.84,576.12,465.62,584.88,465.62Z"/><path class="cls-2" d="M621.5,421.07h-6.81v-3.92h6.81V402.5h4.33v14.65h13.51v3.92H625.83v28.36c0,13.61,8.14,15.37,12.27,15.37a11.85,11.85,0,0,0,2.37-.21v4a14.24,14.24,0,0,1-2.58.21c-5.36,0-16.39-2-16.39-19.08Z"/><path class="cls-2" d="M647.69,396.21h5.16v7.53h-5.16Zm.41,20.63h4.34v51.57H648.1Z"/><path class="cls-2" d="M659.24,416.84h4.64l15.89,40.43c.93,2.47,1.75,5.57,1.75,5.57h.21s.82-3.1,1.75-5.57l15.88-40.43h4.54l-20.21,51.57h-4.13Z"/><path class="cls-2" d="M732.16,415.6c14,0,21,11,21,23.52a27.66,27.66,0,0,1-.21,2.78H711.64c0,15,10.1,23.51,22.07,23.51a23.34,23.34,0,0,0,16-6.49l2.37,3.61a28.11,28.11,0,0,1-18.35,7.11c-14.54,0-26.61-10.52-26.61-26.92C707.1,425.29,719,415.6,732.16,415.6Zm16.5,22.28c-.51-12.59-8-18.26-16.6-18.26-9.49,0-18.26,6.19-20.11,18.26Z"/></g></g></svg>