<svg xmlns="http://www.w3.org/2000/svg" viewBox="0 0 116.9 116.9"><defs><style>.cls-1{fill:#dfb453;}</style></defs><title>wheel</title><g id="Layer_2" data-name="Layer 2"><g id="Layer_1-2" data-name="Layer 1"><path class="cls-1" d="M58.45,0A58.45,58.45,0,1,0,116.9,58.45,58.52,58.52,0,0,0,58.45,0Zm53.78,53.77L89.52,55a31.18,31.18,0,0,0-2.36-8.9l20.28-10.33A53.73,53.73,0,0,1,112.23,53.77Zm-6.56-21.51L85.39,42.6a31.31,31.31,0,0,0-5.79-7.16L93.92,17.75A54.08,54.08,0,0,1,105.67,32.26ZM49.48,48.38a14.63,14.63,0,0,0-1.24,1.25l-9.07-5.9a24.39,24.39,0,0,1,4.41-4.44ZM46.82,37.15a23.76,23.76,0,0,1,5.86-2.27l1.69,10.7a13.84,13.84,0,0,0-1.65.66ZM46.15,52.9a13.34,13.34,0,0,0-.62,1.63L34.84,52.84A24,24,0,0,1,37.06,47ZM45,58.37v.08a12.82,12.82,0,0,0,.11,1.65L34.59,62.9a25.05,25.05,0,0,1-.41-4.45c0-.6,0-1.19.07-1.77Zm1.13,5.48a14.45,14.45,0,0,0,.79,1.51l-8.42,6.82a24.08,24.08,0,0,1-2.84-5.53Zm3.24,4.53a13.83,13.83,0,0,0,1.33,1.07l-4.92,9.66A25,25,0,0,1,40.9,75.2Zm-2.13-9.93A11.26,11.26,0,1,1,58.45,69.71,11.27,11.27,0,0,1,47.19,58.45Zm9.32-24.19c.64,0,1.29-.08,1.94-.08a24,24,0,0,1,4.35.4L60,45c-.5,0-1-.09-1.54-.09h-.24Zm13,16.44a12.47,12.47,0,0,0-1.13-1.39l6.82-8.42a24.25,24.25,0,0,1,4,4.89ZM80.9,49.25a23.69,23.69,0,0,1,1.61,6.08l-10.81.56a12.44,12.44,0,0,0-.46-1.72ZM65.35,46.86a13.46,13.46,0,0,0-1.6-.83l2.8-10.46a24.15,24.15,0,0,1,5.61,2.87Zm-5.71,25a14,14,0,0,0,1.7-.26l3.88,10.12a24.46,24.46,0,0,1-6.15,1ZM65,70.27a15.88,15.88,0,0,0,1.46-1L74.09,77a24,24,0,0,1-5.24,3.38Zm4.23-3.68a13.08,13.08,0,0,0,1-1.45L80.29,69a24.14,24.14,0,0,1-3.44,5.23Zm2.39-5.07a14.19,14.19,0,0,0,.29-1.75l10.82-.56a23.91,23.91,0,0,1-1,6.19ZM90.91,15.29,76.58,33a31.2,31.2,0,0,0-8.21-4.19l5.89-22A53.82,53.82,0,0,1,90.91,15.29ZM58.45,4.45a53.69,53.69,0,0,1,12,1.37l-5.88,22a31.41,31.41,0,0,0-6.17-.61c-1,0-2,.05-3,.15L51.86,4.86A55.13,55.13,0,0,1,58.45,4.45ZM48,5.47,51.58,28A31.23,31.23,0,0,0,43,31.28L30.6,12.18A53.52,53.52,0,0,1,48,5.47ZM27.36,14.31,39.75,33.4a31.68,31.68,0,0,0-6.47,6.51L14.2,27.52A54.14,54.14,0,0,1,27.36,14.31ZM12.08,30.78l19.1,12.4a31,31,0,0,0-3.27,8.56L5.44,48.18A53.51,53.51,0,0,1,12.08,30.78ZM4.45,58.45A54.55,54.55,0,0,1,4.84,52l22.48,3.56c-.09,1-.14,1.9-.14,2.87a31.6,31.6,0,0,0,.63,6.27l-22,5.88A54,54,0,0,1,4.45,58.45ZM15.31,90.92A53.76,53.76,0,0,1,6.84,74.36l22-5.89A31.67,31.67,0,0,0,33,76.59Zm2.45,3L35.45,79.61a32,32,0,0,0,7.09,5.75L32.21,105.64A54.21,54.21,0,0,1,17.76,93.93Zm35.87,18.29a53.6,53.6,0,0,1-18-4.81L46,87.13a31.08,31.08,0,0,0,8.82,2.37ZM55.19,82.5a24.49,24.49,0,0,1-6-1.62l4.92-9.66a11.15,11.15,0,0,0,1.65.46Zm3.26,30-.94,0L58.7,89.71a31.07,31.07,0,0,0,9-1.4l8.15,21.24A53.79,53.79,0,0,1,58.45,112.45Zm21.08-4.27L71.37,86.92a31.51,31.51,0,0,0,7.68-5l16.1,16.1A54,54,0,0,1,79.53,108.18ZM97.9,95.3,81.81,79.21a31.67,31.67,0,0,0,5-7.67L108.1,79.7A53.88,53.88,0,0,1,97.9,95.3ZM88.25,67.92a31,31,0,0,0,1.46-9.08l22.72-1.19c0,.27,0,.53,0,.8a53.8,53.8,0,0,1-3,17.62Z"/><path class="cls-1" d="M68.71,58.45A10.26,10.26,0,1,0,58.45,68.71,10.27,10.27,0,0,0,68.71,58.45Zm-14.24,0a4,4,0,1,1,4,4A4,4,0,0,1,54.47,58.45Z"/></g></g></svg>